<?xml version="1.0" encoding="utf-8"?>
<!-- Svg Vector Icons : http://www.onlinewebfonts.com/icon -->
<!DOCTYPE svg PUBLIC "-//W3C//DTD SVG 1.1//EN" "http://www.w3.org/Graphics/SVG/1.1/DTD/svg11.dtd">
<svg version="1.1" xmlns="http://www.w3.org/2000/svg" xmlns:xlink="http://www.w3.org/1999/xlink" x="0px" y="0px" viewBox="0 0 1000 1000" enable-background="new 0 0 1000 1000" xml:space="preserve">
<metadata> Svg Vector Icons : http://www.onlinewebfonts.com/icon </metadata>
<g><path d="M111.4,128.3C53.9,128.3,10,172.2,10,229.7S53.9,331,111.4,331s101.4-43.9,101.4-101.4S168.8,128.3,111.4,128.3z M111.4,398.6C53.9,398.6,10,442.6,10,500c0,57.4,43.9,101.4,101.4,101.4S212.8,557.4,212.8,500C212.8,442.6,168.8,398.6,111.4,398.6z M111.4,669C53.9,669,10,712.9,10,770.3c0,57.4,43.9,101.4,101.4,101.4s101.4-43.9,101.4-101.4C212.8,712.9,168.8,669,111.4,669z M381.7,297.2h540.7c37.2,0,67.6-30.4,67.6-67.6s-30.4-67.6-67.6-67.6H381.7c-37.2,0-67.6,30.4-67.6,67.6S344.6,297.2,381.7,297.2z M922.4,432.4H381.7c-37.2,0-67.6,30.4-67.6,67.6c0,37.2,30.4,67.6,67.6,67.6h540.7c37.2,0,67.6-30.4,67.6-67.6C990,462.8,959.6,432.4,922.4,432.4z M922.4,702.8H381.7c-37.2,0-67.6,30.4-67.6,67.6c0,37.2,30.4,67.6,67.6,67.6h540.7c37.2,0,67.6-30.4,67.6-67.6C990,733.2,959.6,702.8,922.4,702.8z"/></g>
</svg>